<mxfile host="app.diagrams.net" modified="2021-10-05T07:14:07.094Z" agent="5.0 (Windows NT 10.0; Win64; x64) AppleWebKit/537.36 (KHTML, like Gecko) Chrome/94.0.4606.61 Safari/537.36" etag="m0hthYapK2J8u2JY-ZhM" version="14.8.4" type="github">
  <diagram id="BB0xwgs0AP6PWm0HMwgC" name="第 1 页">
    <mxGraphModel dx="2827" dy="1162" grid="1" gridSize="10" guides="1" tooltips="1" connect="1" arrows="1" fold="1" page="1" pageScale="1" pageWidth="827" pageHeight="1169" math="0" shadow="0">
      <root>
        <mxCell id="0" />
        <mxCell id="1" parent="0" />
        <mxCell id="fDFAljMpXvQzv58OA7Bz-5" style="edgeStyle=orthogonalEdgeStyle;rounded=0;orthogonalLoop=1;jettySize=auto;html=1;" edge="1" parent="1" source="fDFAljMpXvQzv58OA7Bz-1" target="fDFAljMpXvQzv58OA7Bz-4">
          <mxGeometry relative="1" as="geometry" />
        </mxCell>
        <mxCell id="fDFAljMpXvQzv58OA7Bz-1" value="PostFrameCallBack" style="rounded=1;whiteSpace=wrap;html=1;fillColor=#dae8fc;strokeColor=#6c8ebf;" vertex="1" parent="1">
          <mxGeometry x="80" y="100" width="120" height="60" as="geometry" />
        </mxCell>
        <mxCell id="fDFAljMpXvQzv58OA7Bz-6" style="edgeStyle=orthogonalEdgeStyle;rounded=0;orthogonalLoop=1;jettySize=auto;html=1;entryX=0.5;entryY=0;entryDx=0;entryDy=0;" edge="1" parent="1" source="fDFAljMpXvQzv58OA7Bz-3" target="fDFAljMpXvQzv58OA7Bz-4">
          <mxGeometry relative="1" as="geometry" />
        </mxCell>
        <mxCell id="fDFAljMpXvQzv58OA7Bz-3" value="postCallBack" style="rounded=1;whiteSpace=wrap;html=1;fillColor=#dae8fc;strokeColor=#6c8ebf;" vertex="1" parent="1">
          <mxGeometry x="294" y="100" width="120" height="60" as="geometry" />
        </mxCell>
        <mxCell id="fDFAljMpXvQzv58OA7Bz-8" value="" style="edgeStyle=orthogonalEdgeStyle;rounded=0;orthogonalLoop=1;jettySize=auto;html=1;" edge="1" parent="1" source="fDFAljMpXvQzv58OA7Bz-4" target="fDFAljMpXvQzv58OA7Bz-7">
          <mxGeometry relative="1" as="geometry" />
        </mxCell>
        <mxCell id="fDFAljMpXvQzv58OA7Bz-4" value="postCallBackDelayInternal" style="rounded=1;whiteSpace=wrap;html=1;fillColor=#dae8fc;strokeColor=#6c8ebf;" vertex="1" parent="1">
          <mxGeometry x="160" y="220" width="170" height="60" as="geometry" />
        </mxCell>
        <mxCell id="fDFAljMpXvQzv58OA7Bz-10" value="" style="edgeStyle=orthogonalEdgeStyle;rounded=0;orthogonalLoop=1;jettySize=auto;html=1;" edge="1" parent="1" source="fDFAljMpXvQzv58OA7Bz-7" target="fDFAljMpXvQzv58OA7Bz-9">
          <mxGeometry relative="1" as="geometry" />
        </mxCell>
        <mxCell id="fDFAljMpXvQzv58OA7Bz-12" value="" style="edgeStyle=orthogonalEdgeStyle;rounded=0;orthogonalLoop=1;jettySize=auto;html=1;" edge="1" parent="1" source="fDFAljMpXvQzv58OA7Bz-7" target="fDFAljMpXvQzv58OA7Bz-11">
          <mxGeometry relative="1" as="geometry" />
        </mxCell>
        <mxCell id="fDFAljMpXvQzv58OA7Bz-7" value="dueTime&amp;lt;= now" style="rhombus;whiteSpace=wrap;html=1;fillColor=#dae8fc;strokeColor=#6c8ebf;" vertex="1" parent="1">
          <mxGeometry x="177.5" y="330" width="135" height="80" as="geometry" />
        </mxCell>
        <mxCell id="fDFAljMpXvQzv58OA7Bz-18" value="" style="edgeStyle=orthogonalEdgeStyle;rounded=0;orthogonalLoop=1;jettySize=auto;html=1;" edge="1" parent="1" source="fDFAljMpXvQzv58OA7Bz-9" target="fDFAljMpXvQzv58OA7Bz-17">
          <mxGeometry relative="1" as="geometry" />
        </mxCell>
        <mxCell id="fDFAljMpXvQzv58OA7Bz-9" value="postCallBackDelayInternal" style="rounded=1;whiteSpace=wrap;html=1;fillColor=#dae8fc;strokeColor=#6c8ebf;" vertex="1" parent="1">
          <mxGeometry x="-90" y="340" width="170" height="60" as="geometry" />
        </mxCell>
        <mxCell id="fDFAljMpXvQzv58OA7Bz-21" value="" style="edgeStyle=orthogonalEdgeStyle;rounded=0;orthogonalLoop=1;jettySize=auto;html=1;" edge="1" parent="1" source="fDFAljMpXvQzv58OA7Bz-11" target="fDFAljMpXvQzv58OA7Bz-20">
          <mxGeometry relative="1" as="geometry" />
        </mxCell>
        <mxCell id="fDFAljMpXvQzv58OA7Bz-11" value="scheduleFrameLocked" style="rounded=1;whiteSpace=wrap;html=1;fillColor=#dae8fc;strokeColor=#6c8ebf;" vertex="1" parent="1">
          <mxGeometry x="160" y="460" width="170" height="60" as="geometry" />
        </mxCell>
        <mxCell id="fDFAljMpXvQzv58OA7Bz-15" value="Y" style="text;html=1;align=center;verticalAlign=middle;resizable=0;points=[];autosize=1;strokeColor=none;" vertex="1" parent="1">
          <mxGeometry x="120" y="350" width="20" height="20" as="geometry" />
        </mxCell>
        <mxCell id="fDFAljMpXvQzv58OA7Bz-16" value="N" style="text;html=1;align=center;verticalAlign=middle;resizable=0;points=[];autosize=1;strokeColor=none;" vertex="1" parent="1">
          <mxGeometry x="240" y="420" width="20" height="20" as="geometry" />
        </mxCell>
        <mxCell id="fDFAljMpXvQzv58OA7Bz-19" value="" style="edgeStyle=orthogonalEdgeStyle;rounded=0;orthogonalLoop=1;jettySize=auto;html=1;" edge="1" parent="1" source="fDFAljMpXvQzv58OA7Bz-17" target="fDFAljMpXvQzv58OA7Bz-11">
          <mxGeometry relative="1" as="geometry" />
        </mxCell>
        <mxCell id="fDFAljMpXvQzv58OA7Bz-17" value="doScheduleCallBack" style="rounded=1;whiteSpace=wrap;html=1;fillColor=#dae8fc;strokeColor=#6c8ebf;" vertex="1" parent="1">
          <mxGeometry x="-90" y="460" width="170" height="60" as="geometry" />
        </mxCell>
        <mxCell id="fDFAljMpXvQzv58OA7Bz-24" value="" style="edgeStyle=orthogonalEdgeStyle;rounded=0;orthogonalLoop=1;jettySize=auto;html=1;" edge="1" parent="1" source="fDFAljMpXvQzv58OA7Bz-20" target="fDFAljMpXvQzv58OA7Bz-23">
          <mxGeometry relative="1" as="geometry" />
        </mxCell>
        <mxCell id="fDFAljMpXvQzv58OA7Bz-27" value="" style="edgeStyle=orthogonalEdgeStyle;rounded=0;orthogonalLoop=1;jettySize=auto;html=1;" edge="1" parent="1" source="fDFAljMpXvQzv58OA7Bz-20" target="fDFAljMpXvQzv58OA7Bz-26">
          <mxGeometry relative="1" as="geometry" />
        </mxCell>
        <mxCell id="fDFAljMpXvQzv58OA7Bz-20" value="MainThread Looper" style="rhombus;whiteSpace=wrap;html=1;fillColor=#dae8fc;strokeColor=#6c8ebf;" vertex="1" parent="1">
          <mxGeometry x="192.5" y="585" width="105" height="80" as="geometry" />
        </mxCell>
        <mxCell id="fDFAljMpXvQzv58OA7Bz-31" value="" style="edgeStyle=orthogonalEdgeStyle;rounded=0;orthogonalLoop=1;jettySize=auto;html=1;" edge="1" parent="1" source="fDFAljMpXvQzv58OA7Bz-23" target="fDFAljMpXvQzv58OA7Bz-30">
          <mxGeometry relative="1" as="geometry" />
        </mxCell>
        <mxCell id="fDFAljMpXvQzv58OA7Bz-23" value="handle_post&lt;br&gt;MSG_DO_SCHEDULE_VSYNC" style="rounded=1;whiteSpace=wrap;html=1;fillColor=#dae8fc;strokeColor=#6c8ebf;" vertex="1" parent="1">
          <mxGeometry x="-100" y="595" width="210" height="60" as="geometry" />
        </mxCell>
        <mxCell id="fDFAljMpXvQzv58OA7Bz-25" value="N" style="text;html=1;align=center;verticalAlign=middle;resizable=0;points=[];autosize=1;strokeColor=none;" vertex="1" parent="1">
          <mxGeometry x="147.5" y="600" width="20" height="20" as="geometry" />
        </mxCell>
        <mxCell id="fDFAljMpXvQzv58OA7Bz-28" value="" style="edgeStyle=orthogonalEdgeStyle;rounded=0;orthogonalLoop=1;jettySize=auto;html=1;" edge="1" parent="1" source="fDFAljMpXvQzv58OA7Bz-26" target="fDFAljMpXvQzv58OA7Bz-20">
          <mxGeometry relative="1" as="geometry" />
        </mxCell>
        <mxCell id="fDFAljMpXvQzv58OA7Bz-34" value="" style="edgeStyle=orthogonalEdgeStyle;rounded=0;orthogonalLoop=1;jettySize=auto;html=1;" edge="1" parent="1" source="fDFAljMpXvQzv58OA7Bz-26" target="fDFAljMpXvQzv58OA7Bz-33">
          <mxGeometry relative="1" as="geometry" />
        </mxCell>
        <mxCell id="fDFAljMpXvQzv58OA7Bz-26" value="scheduleVsyncLocked" style="rounded=1;whiteSpace=wrap;html=1;fillColor=#dae8fc;strokeColor=#6c8ebf;" vertex="1" parent="1">
          <mxGeometry x="160" y="720" width="170" height="60" as="geometry" />
        </mxCell>
        <mxCell id="fDFAljMpXvQzv58OA7Bz-29" value="Y" style="text;html=1;align=center;verticalAlign=middle;resizable=0;points=[];autosize=1;strokeColor=none;" vertex="1" parent="1">
          <mxGeometry x="250" y="680" width="20" height="20" as="geometry" />
        </mxCell>
        <mxCell id="fDFAljMpXvQzv58OA7Bz-32" value="" style="edgeStyle=orthogonalEdgeStyle;rounded=0;orthogonalLoop=1;jettySize=auto;html=1;" edge="1" parent="1" source="fDFAljMpXvQzv58OA7Bz-30" target="fDFAljMpXvQzv58OA7Bz-26">
          <mxGeometry relative="1" as="geometry" />
        </mxCell>
        <mxCell id="fDFAljMpXvQzv58OA7Bz-30" value="doScheduleVsync" style="rounded=1;whiteSpace=wrap;html=1;fillColor=#dae8fc;strokeColor=#6c8ebf;" vertex="1" parent="1">
          <mxGeometry x="-80" y="720" width="170" height="60" as="geometry" />
        </mxCell>
        <mxCell id="fDFAljMpXvQzv58OA7Bz-37" value="" style="edgeStyle=orthogonalEdgeStyle;rounded=0;orthogonalLoop=1;jettySize=auto;html=1;" edge="1" parent="1" source="fDFAljMpXvQzv58OA7Bz-33" target="fDFAljMpXvQzv58OA7Bz-35">
          <mxGeometry relative="1" as="geometry" />
        </mxCell>
        <mxCell id="fDFAljMpXvQzv58OA7Bz-33" value="scheduleVsync" style="rounded=1;whiteSpace=wrap;html=1;fillColor=#dae8fc;strokeColor=#6c8ebf;" vertex="1" parent="1">
          <mxGeometry x="160" y="820" width="170" height="60" as="geometry" />
        </mxCell>
        <mxCell id="fDFAljMpXvQzv58OA7Bz-39" value="" style="edgeStyle=orthogonalEdgeStyle;rounded=0;orthogonalLoop=1;jettySize=auto;html=1;" edge="1" parent="1" source="fDFAljMpXvQzv58OA7Bz-35" target="fDFAljMpXvQzv58OA7Bz-38">
          <mxGeometry relative="1" as="geometry" />
        </mxCell>
        <mxCell id="fDFAljMpXvQzv58OA7Bz-35" value="onVsync" style="rounded=1;whiteSpace=wrap;html=1;fillColor=#dae8fc;strokeColor=#6c8ebf;" vertex="1" parent="1">
          <mxGeometry x="160" y="920" width="170" height="60" as="geometry" />
        </mxCell>
        <mxCell id="fDFAljMpXvQzv58OA7Bz-38" value="doFrame" style="rounded=1;whiteSpace=wrap;html=1;fillColor=#dae8fc;strokeColor=#6c8ebf;" vertex="1" parent="1">
          <mxGeometry x="160" y="1020" width="170" height="60" as="geometry" />
        </mxCell>
      </root>
    </mxGraphModel>
  </diagram>
</mxfile>
